HIERARCHY
ROOT Bip001_Pelvis
{
  OFFSET 7.937 94.8971 -8.5489
  CHANNELS 6 Xposition Yposition Zposition Zrotation Xrotation Yrotation
  JOINT Bip001_Spine
  {
    OFFSET 1.44608e-005 10.4157 -0.0118244
    CHANNELS 3 Zrotation Xrotation Yrotation
    JOINT Bip001_L_Thigh
    {
      OFFSET 11.2582 -10.4157 0.0118432
      CHANNELS 3 Zrotation Xrotation Yrotation
      JOINT Bip001_L_Calf
      {
        OFFSET -0.720717 -44.8687 0.366937
        CHANNELS 3 Zrotation Xrotation Yrotation
        JOINT Bip001_L_Foot
        {
          OFFSET -0.664439 -41.3745 -3.62995
          CHANNELS 3 Zrotation Xrotation Yrotation
          JOINT Bip001_L_Toe0
          {
            OFFSET 0.0541047 -10.4146 13.4033
            CHANNELS 3 Zrotation Xrotation Yrotation
            End Site
            {
              OFFSET -1.04503e-005 0 7.70137
            }
          }
        }
      }
    }
    JOINT Bip001_R_Thigh
    {
      OFFSET -11.2582 -10.4156 0.0118122
      CHANNELS 3 Zrotation Xrotation Yrotation
      JOINT Bip001_R_Calf
      {
        OFFSET 0.72059 -44.8687 0.36676
        CHANNELS 3 Zrotation Xrotation Yrotation
        JOINT Bip001_R_Foot
        {
          OFFSET 0.664321 -41.3745 -3.62979
          CHANNELS 3 Zrotation Xrotation Yrotation
          JOINT Bip001_R_Toe0
          {
            OFFSET -0.05417 -10.4146 13.4033
            CHANNELS 3 Zrotation Xrotation Yrotation
            End Site
            {
              OFFSET -1.04873e-005 0 7.70137
            }
          }
        }
      }
    }
    JOINT Bip001_Spine1
    {
      OFFSET 1.90638e-005 14.8539 1.10727
      CHANNELS 3 Zrotation Xrotation Yrotation
      JOINT Bip001_Spine2
      {
        OFFSET 2.28934e-005 14.7848 -1.7233
        CHANNELS 3 Zrotation Xrotation Yrotation
        JOINT Bip001_Neck
        {
          OFFSET 2.24514e-005 15.6905 -0.498826
          CHANNELS 3 Zrotation Xrotation Yrotation
          JOINT Bip001_L_Clavicle
          {
            OFFSET 6.17691 -0.000591152 0.00852867
            CHANNELS 3 Zrotation Xrotation Yrotation
            JOINT Bip001_L_UpperArm
            {
              OFFSET 11.773 -0.0611878 0.00197697
              CHANNELS 3 Zrotation Xrotation Yrotation
              JOINT Bip001_L_Forearm
              {
                OFFSET 26.4515 0.0817568 -2.19579
                CHANNELS 3 Zrotation Xrotation Yrotation
                JOINT Bip001_L_Hand
                {
                  OFFSET 32.8677 0.156744 1.67112
                  CHANNELS 3 Zrotation Xrotation Yrotation
                  JOINT Bip001_L_Finger0
                  {
                    OFFSET 6.16268 -2.25226 6.01674
                    CHANNELS 3 Zrotation Xrotation Yrotation
                    End Site
                    {
                      OFFSET 4.30499 -1.46662 0.618148
                    }
                  }
                  JOINT Bip001_L_Finger1
                  {
                    OFFSET 11.2957 -0.718374 -0.201963
                    CHANNELS 3 Zrotation Xrotation Yrotation
                    End Site
                    {
                      OFFSET 6.31952 -0.405163 -0.0802303
                    }
                  }
                }
              }
            }
          }
          JOINT Bip001_R_Clavicle
          {
            OFFSET -6.17691 -0.000574027 0.00851165
            CHANNELS 3 Zrotation Xrotation Yrotation
            JOINT Bip001_R_UpperArm
            {
              OFFSET -11.773 -0.0611516 0.00194365
              CHANNELS 3 Zrotation Xrotation Yrotation
              JOINT Bip001_R_Forearm
              {
                OFFSET -26.4514 0.0822334 -2.19736
                CHANNELS 3 Zrotation Xrotation Yrotation
                JOINT Bip001_R_Hand
                {
                  OFFSET -32.8677 0.156817 1.67144
                  CHANNELS 3 Zrotation Xrotation Yrotation
                  JOINT Bip001_R_Finger0
                  {
                    OFFSET -6.1627 -2.25224 6.0167
                    CHANNELS 3 Zrotation Xrotation Yrotation
                    End Site
                    {
                      OFFSET -4.30499 -1.46662 0.618134
                    }
                  }
                  JOINT Bip001_R_Finger1
                  {
                    OFFSET -11.2958 -0.718344 -0.201994
                    CHANNELS 3 Zrotation Xrotation Yrotation
                    End Site
                    {
                      OFFSET -6.31952 -0.405146 -0.0802475
                    }
                  }
                }
              }
            }
          }
          JOINT Bip001_Head
          {
            OFFSET 1.11782e-005 11.4912 2.09908
            CHANNELS 3 Zrotation Xrotation Yrotation
            End Site
            {
              OFFSET 2.95144e-005 21.2823 -2.83069e-005
            }
          }
        }
      }
    }
  }
}
MOTION
Frames:	13
Frame Time:	0.04
7.63589 95.5727 -8.92099 -0.252688 -0.155583 2.17155 0.12783 2.05565 0.217135 5.56562 -10.295 8.27157 -1.07041 14.6229 -1.18961 -2.99103 -5.33964 -0.255136 0.677686 -9.83773 0.299145 -7.99241 -7.6514 -1.00469 0.450107 14.0232 1.07343 1.81315 -7.57272 -9.95164 -1.41791 -11.4303 1.0154 0.0516347 4.11132 0.419619 0.0516631 4.11133 0.419224 2.04999 14.1496 -3.11173 -32.166 -8.16866 -15.7838 -46.586 42.8785 1.81849 11.7949 -1.11522 -24.8933 -2.15977 -0.388561 -0.966637 0 0 -3.18055e-015 1.59028e-015 6.36111e-015 -3.18055e-015 36.3719 -3.05271 21.5404 45.507 51.2925 -14.2842 0.641365 -26.5837 25.7659 10.2037 1.08977 -18.7234 3.18055e-015 0 -4.77083e-015 4.77083e-015 3.18056e-015 -3.18055e-015 -2.56604 10.2068 -1.4809 
7.61065 95.5724 -8.85891 -0.156805 -0.152276 2.26865 0.140244 2.08815 0.112526 5.46441 -10.2268 8.25909 -1.05248 14.4672 -1.21069 -3.02595 -5.28748 -0.227773 0.675926 -9.83774 0.288841 -8.1327 -7.69399 -0.590711 0.688666 14.1489 0.728793 1.72105 -7.70191 -10.0594 -1.42877 -11.4302 1.0171 0.0727221 4.17634 0.206471 0.0727221 4.17635 0.206472 2.09243 14.2598 -2.87797 -32.3665 -8.21967 -15.774 -46.6638 42.6551 2.0236 11.7491 -0.843362 -24.8135 -2.23014 -0.403245 -1.00865 1.59028e-015 3.18055e-015 -1.59028e-015 1.59028e-015 0 -3.18055e-015 36.5789 -3.53746 20.7353 48.85 48.9598 -17.6211 0.720031 -28.1299 26.1951 9.93087 1.28468 -19.5972 3.18055e-015 0 -3.18055e-015 1.59028e-015 3.18056e-015 -0 -2.57021 10.3961 -1.22296 
7.54082 95.5617 -8.78537 -0.131401 -0.210408 2.27358 0.156521 2.109 -0.00075212 5.49892 -10.1347 8.30614 -1.08208 14.4739 -1.22481 -3.05811 -5.34051 -0.174751 0.678678 -9.83772 0.305246 -8.09341 -7.69367 -0.555729 0.641578 14.2985 0.935905 1.6459 -7.82935 -10.1593 -1.41463 -11.4303 0.988183 0.111416 4.21795 -0.0204509 0.111417 4.21797 -0.0204499 2.09274 14.4764 -2.68304 -32.547 -8.4199 -15.6741 -46.8744 42.6821 2.37145 11.7288 -0.815495 -24.7131 -2.46669 -0.453429 -1.02542 3.18055e-015 -9.54166e-015 -1.59028e-015 -1.76556e-031 -6.36111e-015 -1.59028e-015 36.675 -4.00152 20.2887 50.384 46.4337 -19.0278 0.665978 -26.9084 25.5897 9.56721 -0.159171 -18.2825 1.59028e-015 9.54166e-015 -1.59028e-015 1.59028e-015 6.36111e-015 -1.59028e-015 -2.58038 10.47 -1.02078 
7.43842 95.5621 -8.71595 -0.188055 -0.279585 2.22816 0.187873 2.12591 -0.0770577 5.63702 -10.0258 8.49618 -1.1017 14.49 -1.37851 -3.10555 -5.4069 -0.123075 0.682869 -9.83029 0.332176 -7.97372 -7.61227 -0.38458 0.649409 14.2738 0.950826 1.56008 -7.85576 -10.2171 -1.41088 -11.4304 0.979778 0.168687 4.25164 -0.173455 0.172453 4.25164 -0.173651 2.11301 14.6881 -2.67115 -32.6844 -8.6074 -15.7146 -47.1729 42.6847 2.86209 11.7193 -0.718398 -24.6375 -2.43045 -0.427619 -0.967792 -1.59028e-015 -1.27222e-014 1.59028e-015 -1.59028e-015 -1.59028e-014 7.95139e-016 36.8379 -4.235 20.2002 51.0732 43.3711 -19.8874 0.72788 -26.735 25.9567 10.7344 -0.777301 -17.6262 -3.18055e-015 6.36111e-015 6.36111e-015 -3.18055e-015 6.36111e-015 6.36111e-015 -2.60435 10.5208 -0.989466 
7.38087 95.5639 -8.67563 -0.180019 -0.34264 2.09378 0.195072 2.13045 -0.123533 5.66892 -9.88905 8.5199 -1.11183 14.4247 -1.35611 -3.15265 -5.42343 -0.0145297 0.684743 -9.82692 0.346981 -7.95634 -7.59738 -0.432702 0.637065 14.3194 1.03196 1.54566 -7.88681 -10.0826 -1.4312 -11.4303 0.999051 0.188048 4.28059 -0.267791 0.188048 4.28059 -0.267792 2.06341 15.0229 -2.69518 -32.6734 -8.95059 -15.7382 -47.4454 42.8777 3.11851 11.8669 0.0759554 -24.336 -2.38474 -0.390858 -1.14908 4.41391e-032 3.18055e-015 -7.95139e-016 1.32417e-031 9.54167e-015 -7.95139e-016 36.8766 -4.59893 20.198 49.8015 39.3453 -18.9306 1.7262 -24.9412 26.1683 11.7992 -0.660176 -16.5605 1.59028e-015 3.18055e-015 -0 1.59028e-015 6.36111e-015 3.18055e-015 -2.53258 10.2645 -1.05854 
7.3328 95.5663 -8.6511 -0.222253 -0.405379 1.89954 0.197914 2.12968 -0.131773 5.74137 -9.77012 8.70317 -1.05186 14.4305 -1.42283 -3.21654 -5.47795 0.0172821 0.688989 -9.8261 0.376533 -7.87825 -7.55801 -0.40854 0.625948 14.2946 1.14109 1.51457 -7.85805 -10.0277 -1.43427 -11.4302 1.01626 0.203931 4.27458 -0.286938 0.204082 4.27459 -0.286866 2.07469 15.1753 -2.63411 -32.6333 -9.07048 -15.8336 -47.7829 42.9648 3.3597 11.8687 0.200461 -24.1731 -2.55258 -0.385357 -1.21139 -3.18055e-015 0 -7.95139e-016 -3.18055e-015 -3.18056e-015 -7.95139e-016 36.5738 -5.03487 19.8133 49.4615 38.0899 -17.8635 3.2891 -28.7368 26.3202 14.7985 -0.839103 -14.9847 -0 -3.18055e-015 -0 -1.59028e-015 -6.36111e-015 -0 -2.44512 10.3386 -1.01612 
7.30906 95.5715 -8.64494 -0.251534 -0.432073 1.7323 0.199969 2.12876 -0.143838 5.78926 -9.68974 8.69811 -1.05419 14.4149 -1.33092 -3.24711 -5.50261 0.0876588 0.690851 -9.8245 0.392462 -7.83281 -7.54167 -0.308498 0.646117 14.2466 1.15001 1.48294 -7.81037 -9.97069 -1.4285 -11.4302 1.03069 0.20287 4.24558 -0.31021 0.205186 4.2456 -0.3104 1.88899 15.2069 -2.52697 -32.5025 -9.09097 -15.796 -47.6682 42.1176 3.10061 11.6904 1.19903 -23.8918 -2.52042 -0.364575 -1.29781 -8.82781e-032 3.18055e-015 1.59028e-015 1.59028e-015 0 -0 36.6168 -5.16589 19.686 48.8217 38.8293 -16.7643 4.0995 -30.1654 25.5551 14.7125 -2.25249 -13.0161 1.59028e-015 3.18055e-015 -0 0 0 -0 -2.15342 10.5923 -1.07084 
7.28739 95.5722 -8.65381 -0.29046 -0.451635 1.6133 0.201253 2.12754 -0.141434 5.85217 -9.67809 8.77719 -1.03722 14.4736 -1.13483 -3.29831 -5.52405 -0.056073 0.686078 -9.82242 0.369214 -7.77805 -7.54107 -0.194546 0.652093 14.2097 1.04296 1.52243 -7.77748 -9.87998 -1.46131 -11.4301 1.05644 0.199156 4.2357 -0.30415 0.201146 4.23571 -0.30454 1.89401 14.9429 -2.46793 -32.5549 -8.82719 -15.7072 -47.575 41.9538 3.03953 11.6674 1.27769 -23.9149 -2.5405 -0.36817 -1.31689 0 9.54166e-015 -0 -1.59028e-015 6.36111e-015 1.59028e-015 36.6282 -4.81262 19.8367 46.91 37.9806 -15.2476 4.41689 -28.8654 25.2558 14.3739 -2.14585 -14.0754 -7.95139e-016 -3.18055e-015 -0 -7.95139e-016 -6.36111e-015 -0 -2.2123 10.9795 -0.986139 
7.23419 95.565 -8.65516 -0.396484 -0.5 1.62192 0.201832 2.1269 -0.106762 6.03961 -9.72039 8.81133 -1.10253 14.66 -1.21977 -3.28505 -5.61736 -0.0552324 0.686836 -9.82009 0.377454 -7.61081 -7.46428 -0.360289 0.545181 14.1575 1.09558 1.55775 -7.74842 -9.79528 -1.47781 -11.4358 1.05954 0.193837 4.25354 -0.234601 0.193837 4.25355 -0.234601 1.9206 14.8369 -2.53229 -32.5098 -8.61632 -16.0302 -47.8456 42.3991 3.43817 11.8995 0.159839 -24.2042 -2.64298 -0.374531 -1.26884 1.59028e-015 -3.18055e-015 -0 8.82782e-032 -6.36111e-015 7.95139e-016 36.7778 -4.51348 20.1103 45.0543 38.1657 -14.0322 3.51388 -25.9416 25.6313 15.3073 -1.96152 -15.3272 1.59028e-015 6.36111e-015 -0 2.38542e-015 3.18056e-015 1.59028e-015 -2.18404 10.9326 -1.05027 
7.01086 95.557 -8.64372 -0.843491 -0.516384 1.85076 0.272274 2.10244 -0.0826661 6.73937 -10.0097 9.05869 -1.308 15.2851 -1.5062 -3.27826 -5.88065 -0.208747 0.685446 -9.81785 0.371547 -6.92207 -7.18217 -0.217062 0.263603 13.7398 0.735397 1.57937 -7.54616 -9.79714 -1.45371 -11.4463 1.08232 0.33548 4.20455 -0.188533 0.33548 4.20455 -0.188531 1.92092 14.9683 -2.56049 -32.5579 -8.78625 -15.9425 -47.308 42.7477 2.97317 11.5284 -0.821606 -24.4079 -2.70291 -0.413211 -1.11703 3.53112e-031 1.27222e-014 -1.59028e-015 1.32417e-031 9.54167e-015 -7.95139e-016 36.6284 -4.62776 20.2446 43.1376 37.7944 -11.9295 1.68433 -22.2132 25.9507 19.2244 -1.54563 -17.2267 1.59028e-015 6.36111e-015 -3.18055e-015 4.77083e-015 6.36111e-015 -6.36111e-015 -2.26457 10.7297 -1.05615 
7.33899 95.55 -8.76654 -0.229027 -0.58866 2.03179 0.11464 2.07627 -0.060415 5.75711 -9.73497 8.31306 -0.973914 14.6028 -1.18028 -3.25868 -5.47568 -0.0806359 0.676363 -9.81596 0.378065 -7.91001 -7.37851 -1.1768 0.592615 14.3975 0.793826 1.88848 -7.896 -9.18773 -1.66081 -11.4209 1.16873 -0.00518748 4.15251 -0.123104 -0.00518742 4.1525 -0.123103 2.32302 15.3611 -2.63326 -32.7853 -9.15629 -16.1551 -47.146 42.8845 2.76975 11.6843 -0.861683 -24.5311 -2.67917 -0.445633 -1.16056 1.59028e-015 3.18055e-015 -1.59028e-015 1.59028e-015 0 -1.59028e-015 36.1942 -5.00436 20.4486 41.1079 37.0948 -9.53733 -0.0265267 -20.1981 28.5325 20.1047 -1.53871 -20.4199 -1.59028e-015 3.18055e-015 3.18055e-015 -1.59028e-015 3.18056e-015 1.59028e-015 -2.90696 10.2664 -0.768624 
7.38593 95.5357 -8.81957 -0.185626 -0.54306 2.61644 0.0708172 1.99221 -0.0667792 5.67731 -9.89085 8.08885 -0.957815 14.679 -1.68191 -3.14853 -5.41698 0.079618 0.673854 -9.81473 0.382176 -7.97775 -7.2519 -2.21838 0.407592 14.4878 1.0937 2.02899 -7.992 -8.98466 -1.69496 -11.4187 1.18622 -0.0954422 3.98447 -0.147228 -0.0953546 3.98447 -0.148707 2.27693 15.3646 -2.34584 -32.5685 -9.08149 -16.2854 -46.9713 42.6113 2.43366 11.8161 -0.335241 -24.7171 -2.68171 -0.434373 -1.24401 -1.59028e-015 -3.18055e-015 3.18055e-015 -1.59028e-015 -6.36111e-015 3.18055e-015 35.6526 -5.35083 20.1359 39.5466 34.6583 -6.97845 -1.09804 -18.4351 34.5754 17.0513 -1.05634 -25.2991 7.95139e-016 -6.36111e-015 1.59028e-015 -7.95139e-016 -9.54167e-015 1.59028e-015 -3.05423 10.1891 -0.456947 
7.45835 95.5365 -8.89155 -0.17079 -0.365886 3.28696 0.0496221 1.8401 -0.0461608 5.56968 -10.109 8.25711 -0.82365 14.7024 -2.32651 -3.06099 -5.27832 -0.102988 0.675602 -9.82298 0.354397 -8.03934 -7.09457 -1.88345 0.565832 14.3694 0.49542 2.10614 -8.01662 -9.38568 -1.74316 -11.3929 1.15434 -0.140822 3.68028 -0.10906 -0.140821 3.68027 -0.10906 2.11622 14.9985 -1.92229 -32.5405 -8.42616 -16.7302 -46.6504 42.3171 2.44833 11.8136 -0.120946 -25.0193 -2.762 -0.351233 -1.49732 4.77083e-015 0 -0 4.77083e-015 0 -3.18055e-015 34.4572 -5.49133 19.7971 38.0586 34.0695 -3.59477 -1.68555 -17.0465 42.0615 10.6821 0.551401 -31.5818 -5.96354e-016 -3.18055e-015 -5.96354e-016 -1.98785e-016 0 6.95746e-016 -3.4036 10.1484 0.000650107 
